<svg aria-hidden="true" style="position:absolute;width:0;height:0" xmlns="http://www.w3.org/2000/svg" overflow="hidden"><defs><symbol id="icon-pin" viewBox="0 0 41 32"><path d="M40.228 19.63C40.228 8.941 31.556.269 20.867.269S1.506 8.941 1.506 19.63c0 7.941 4.765 14.748 11.597 17.748-.05-1.361-.025-3 .328-4.462 0 0 .378-1.563 2.496-10.538-.63-1.235-.63-3.076-.63-3.076 0-2.874 1.664-5.017 3.731-5.017 1.765 0 2.622 1.336 2.622 2.924 0 1.765-1.134 4.412-1.714 6.857-.479 2.067 1.034 3.731 3.05 3.731 3.681 0 6.151-4.714 6.151-10.286 0-4.261-2.874-7.437-8.067-7.437-5.874 0-9.53 4.387-9.53 9.277 0 1.689.504 2.874 1.286 3.807.353.428.403.58.277 1.084-.101.353-.303 1.21-.403 1.538-.126.504-.529.681-.958.504-2.697-1.109-3.958-4.084-3.958-7.412 0-5.496 4.639-12.101 13.815-12.101 7.412 0 12.277 5.37 12.277 11.092 0 7.613-4.235 13.286-10.462 13.286-2.092 0-4.059-1.134-4.714-2.42a812.653 812.653 0 01-1.361 5.319c-.403 1.487-1.235 2.975-1.966 4.134 1.765.529 3.58.807 5.496.807 10.689 0 19.361-8.672 19.361-19.361z"/></symbol><symbol id="icon-facebook" viewBox="0 0 18 32"><path d="M17.035.82c-.503-.075-2.236-.224-4.248-.224-4.211 0-7.099 2.571-7.099 7.286v4.062H.936v5.516h4.752v14.143h5.702V17.46h4.733l.727-5.516h-5.46V8.422c0-1.584.429-2.683 2.721-2.683h2.925V.82z"/></symbol><symbol id="icon-google" viewBox="0 0 38 32"><path d="M29.326 16.238c0-.979-.102-1.735-.245-2.49H14.959v5.143h8.49c-.347 2.184-2.571 6.449-8.49 6.449-5.102 0-9.265-4.225-9.265-9.449s4.163-9.449 9.265-9.449c2.918 0 4.857 1.245 5.959 2.306l4.061-3.898C22.367 2.401 18.999.932 14.959.932 6.694.932 0 7.626 0 15.891S6.694 30.85 14.959 30.85c8.633 0 14.367-6.061 14.367-14.612zm17.694-2.49h-4.265V9.483h-4.286v4.265h-4.265v4.286h4.265v4.265h4.286v-4.265h4.265v-4.286z"/></symbol><symbol id="icon-menu-button" viewBox="0 0 32 32"><path d="M2.4 0A2.4 2.4 0 000 2.4v27.2A2.4 2.4 0 002.4 32h27.2a2.4 2.4 0 002.4-2.4V2.4A2.4 2.4 0 0029.6 0H2.4z"/><path fill="var(--color2, #2b4074)"     d="M20.8 18.8c0-.219-.181-.4-.4-.4h-8.8c-.219 0-.4.181-.4.4v.8c0 .219.181.4.4.4h8.8c.219 0 .4-.181.4-.4v-.8zm0-3.2c0-.219-.181-.4-.4-.4h-8.8c-.219 0-.4.181-.4.4v.8c0 .219.181.4.4.4h8.8c.219 0 .4-.181.4-.4v-.8zm0-3.2c0-.219-.181-.4-.4-.4h-8.8c-.219 0-.4.181-.4.4v.8c0 .219.181.4.4.4h8.8c.219 0 .4-.181.4-.4v-.8z"/></symbol><symbol id="icon-twitter" viewBox="0 0 39 32"><path d="M38.571 5.143c-1.381.595-2.881 1.024-4.428 1.19a7.67 7.67 0 003.381-4.238 15.13 15.13 0 01-4.881 1.857 7.673 7.673 0 00-5.619-2.429 7.687 7.687 0 00-7.691 7.69c0 .595.071 1.191.19 1.762A21.858 21.858 0 013.666 2.927a7.63 7.63 0 00-1.048 3.881 7.684 7.684 0 003.429 6.405 7.756 7.756 0 01-3.476-.976v.095a7.693 7.693 0 006.167 7.548 8.114 8.114 0 01-2.024.262c-.5 0-.976-.048-1.452-.119a7.703 7.703 0 007.19 5.333 15.404 15.404 0 01-9.548 3.286 15.99 15.99 0 01-1.857-.095 21.727 21.727 0 0011.81 3.452c14.143 0 21.881-11.714 21.881-21.881 0-.333 0-.667-.024-1a16.531 16.531 0 003.857-3.976z"/></symbol></defs></svg>